<svg width="482" height="348" viewBox="0 0 482 348" fill="none" xmlns="http://www.w3.org/2000/svg">
<mask id="mask0_496_12412" style="mask-type:alpha" maskUnits="userSpaceOnUse" x="0" y="-83" width="1003" height="981">
<g clip-path="url(#clip0_496_12412)">
<rect width="846.927" height="557.11" transform="translate(1002.76 332.313) rotate(138.119)" fill="url(#paint0_linear_496_12412)"/>
<path d="M378.885 381.068C386.734 369.755 391.838 348.277 391.838 348.277C391.838 348.277 384.526 360.367 366.451 375.074C345.298 392.285 323.321 386.518 303.166 404.59C283.6 422.133 291.871 445.979 291.871 445.979C291.871 445.979 290.139 434.422 314.867 414.267C336.697 396.474 365.248 400.725 378.885 381.068Z" stroke="#575753" stroke-width="1.50164" stroke-linejoin="round"/>
<path d="M375.722 359.55C379.214 354.949 381.775 346.055 381.775 346.055C381.775 346.055 378.247 352.243 373.274 355.694C364.894 361.509 356.565 358.914 349.313 366.086C344.76 370.589 340.581 379.966 340.581 379.966C340.581 379.966 345.979 374.896 350.026 372.505C359.915 366.664 368.928 368.501 375.722 359.55Z" stroke="#575753" stroke-width="1.50164" stroke-linejoin="round"/>
<path d="M543.346 173.097C551.195 161.785 556.299 140.306 556.299 140.306C556.299 140.306 548.987 152.396 530.912 167.103C509.759 184.314 487.782 178.547 467.627 196.619C448.061 214.162 456.332 238.008 456.332 238.008C456.332 238.008 454.6 226.451 479.328 206.296C501.158 188.503 529.709 192.754 543.346 173.097Z" stroke="#575753" stroke-width="1.50164" stroke-linejoin="round"/>
<path d="M520.174 207.99C531.238 200.086 540.587 184.645 540.587 184.645C540.587 184.645 527.788 195.113 515.894 198.718C501.509 203.079 489.426 206.315 480.039 212.715C472.283 218.003 466.719 232.726 466.719 232.726C466.719 232.726 475.548 226.826 485.321 223.105C499.186 217.827 508.102 216.614 520.174 207.99Z" stroke="#575753" stroke-width="1.50164" stroke-linejoin="round"/>
<path d="M482.893 92.1746C490.742 80.8619 495.846 59.3835 495.846 59.3835C495.846 59.3835 488.534 71.4733 470.459 86.18C449.306 103.391 427.329 97.6242 407.173 115.696C387.608 133.24 395.879 157.085 395.879 157.085C395.879 157.085 394.147 145.529 418.875 125.373C440.705 107.58 469.256 111.831 482.893 92.1746Z" stroke="#575753" stroke-width="1.50164" stroke-linejoin="round"/>
<path d="M479.73 70.6559C483.222 66.0554 485.783 57.1616 485.783 57.1616C485.783 57.1616 482.255 63.3498 477.282 66.8006C468.902 72.6151 460.573 70.0203 453.321 77.1922C448.767 81.6952 444.589 91.0722 444.589 91.0722C444.589 91.0722 449.987 86.0022 454.034 83.6115C463.923 77.77 472.936 79.6077 479.73 70.6559Z" stroke="#575753" stroke-width="1.50164" stroke-linejoin="round"/>
<path d="M459.721 127.067C470.785 119.163 480.134 103.722 480.134 103.722C480.134 103.722 467.334 114.19 455.441 117.795C441.056 122.156 428.973 125.392 419.586 131.792C411.829 137.08 406.266 151.803 406.266 151.803C406.266 151.803 415.095 145.903 424.868 142.182C438.733 136.904 447.649 135.691 459.721 127.067Z" stroke="#575753" stroke-width="1.50164" stroke-linejoin="round"/>
<path d="M433.628 235.176C441.476 223.863 446.58 202.384 446.58 202.384C446.58 202.384 439.269 214.474 421.194 229.181C400.04 246.392 378.063 240.625 357.908 258.697C338.342 276.241 346.613 300.086 346.613 300.086C346.613 300.086 344.881 288.53 369.61 268.374C391.439 250.581 419.991 254.832 433.628 235.176Z" stroke="#575753" stroke-width="1.50164" stroke-linejoin="round"/>
<path d="M430.465 213.657C433.956 209.056 436.517 200.163 436.517 200.163C436.517 200.163 432.99 206.351 428.016 209.802C419.636 215.616 411.307 213.021 404.055 220.193C399.502 224.696 395.323 234.073 395.323 234.073C395.323 234.073 400.721 229.003 404.769 226.612C414.658 220.771 423.67 222.609 430.465 213.657Z" stroke="#575753" stroke-width="1.50164" stroke-linejoin="round"/>
<path d="M410.455 270.068C421.52 262.164 430.868 246.723 430.868 246.723C430.868 246.723 418.069 257.191 406.175 260.796C391.79 265.157 379.708 268.393 370.32 274.793C362.564 280.081 357 294.804 357 294.804C357 294.804 365.829 288.904 375.602 285.183C389.467 279.905 398.383 278.692 410.455 270.068Z" stroke="#575753" stroke-width="1.50164" stroke-linejoin="round"/>
<path d="M370.932 156.258C378.781 144.945 383.885 123.466 383.885 123.466C383.885 123.466 376.573 135.556 358.498 150.263C337.345 167.474 315.368 161.707 295.213 179.779C275.647 197.323 283.918 221.168 283.918 221.168C283.918 221.168 282.186 209.612 306.914 189.456C328.744 171.663 357.295 175.914 370.932 156.258Z" stroke="#575753" stroke-width="1.50164" stroke-linejoin="round"/>
<path d="M367.769 134.739C371.261 130.138 373.822 121.245 373.822 121.245C373.822 121.245 370.294 127.433 365.321 130.884C356.941 136.698 348.612 134.103 341.36 141.275C336.806 145.778 332.628 155.155 332.628 155.155C332.628 155.155 338.026 150.085 342.073 147.694C351.962 141.853 360.975 143.691 367.769 134.739Z" stroke="#575753" stroke-width="1.50164" stroke-linejoin="round"/>
<path d="M347.76 191.15C358.824 183.246 368.173 167.805 368.173 167.805C368.173 167.805 355.374 178.273 343.48 181.878C329.095 186.239 317.012 189.475 307.625 195.875C299.868 201.163 294.305 215.886 294.305 215.886C294.305 215.886 303.134 209.986 312.907 206.265C326.772 200.987 335.688 199.774 347.76 191.15Z" stroke="#575753" stroke-width="1.50164" stroke-linejoin="round"/>
<path d="M200.339 359.64C208.187 348.327 213.291 326.849 213.291 326.849C213.291 326.849 205.979 338.939 187.904 353.645C166.751 370.857 144.774 365.09 124.619 383.162C105.053 400.705 113.324 424.55 113.324 424.55C113.324 424.55 111.592 412.994 136.321 392.838C158.15 375.046 186.702 379.296 200.339 359.64Z" stroke="#575753" stroke-width="1.50164" stroke-linejoin="round"/>
<path d="M197.183 338.121C200.675 333.521 203.236 324.627 203.236 324.627C203.236 324.627 199.708 330.815 194.735 334.266C186.355 340.08 178.026 337.486 170.774 344.658C166.22 349.16 162.042 358.538 162.042 358.538C162.042 358.538 167.44 353.468 171.487 351.077C181.376 345.235 190.389 347.073 197.183 338.121Z" stroke="#575753" stroke-width="1.50164" stroke-linejoin="round"/>
<path d="M317.424 299.027C325.273 287.714 330.377 266.236 330.377 266.236C330.377 266.236 323.065 278.326 304.99 293.033C283.837 310.244 261.86 304.477 241.705 322.549C222.139 340.092 230.41 363.938 230.41 363.938C230.41 363.938 228.678 352.381 253.406 332.226C275.236 314.433 303.787 318.684 317.424 299.027Z" stroke="#575753" stroke-width="1.50164" stroke-linejoin="round"/>
<path d="M314.261 277.508C317.753 272.908 320.314 264.014 320.314 264.014C320.314 264.014 316.786 270.202 311.813 273.653C303.433 279.468 295.104 276.873 287.852 284.045C283.299 288.548 279.12 297.925 279.12 297.925C279.12 297.925 284.518 292.855 288.566 290.464C298.454 284.623 307.467 286.46 314.261 277.508Z" stroke="#575753" stroke-width="1.50164" stroke-linejoin="round"/>
<path d="M294.252 333.92C305.317 326.016 314.665 310.574 314.665 310.574C314.665 310.574 301.866 321.042 289.972 324.648C275.587 329.008 263.505 332.244 254.117 338.645C246.361 343.933 240.797 358.655 240.797 358.655C240.797 358.655 249.626 352.756 259.399 349.035C273.264 343.756 282.18 342.544 294.252 333.92Z" stroke="#575753" stroke-width="1.50164" stroke-linejoin="round"/>
<path d="M403.983 330.329C391.885 336.902 369.979 339.642 369.979 339.642C369.979 339.642 382.792 333.687 399.375 317.317C418.783 298.16 415.439 275.686 435.594 257.614C455.16 240.071 477.965 250.884 477.965 250.884C477.965 250.884 466.666 247.906 443.942 270.298C423.882 290.065 425.005 318.909 403.983 330.329Z" stroke="#575753" stroke-width="1.50164" stroke-linejoin="round"/>
<path d="M382.941 324.85C377.988 327.821 368.869 329.4 368.869 329.4C368.869 329.4 375.403 326.566 379.374 321.997C386.065 314.299 384.391 305.737 392.308 299.307C397.279 295.27 407.055 292.135 407.055 292.135C407.055 292.135 401.428 296.951 398.612 300.714C391.73 309.91 392.578 319.069 382.941 324.85Z" stroke="#575753" stroke-width="1.50164" stroke-linejoin="round"/>
<path d="M441.193 311.089C432.133 321.229 415.767 328.844 415.767 328.844C415.767 328.844 427.564 317.258 432.44 305.827C438.338 292.001 442.868 280.342 450.251 271.705C456.351 264.569 471.59 260.639 471.59 260.639C471.59 260.639 464.767 268.774 460.006 278.085C453.251 291.294 451.077 300.026 441.193 311.089Z" stroke="#575753" stroke-width="1.50164" stroke-linejoin="round"/>
<path d="M108.116 373.756C96.0175 380.328 74.1115 383.068 74.1115 383.068C74.1115 383.068 86.9243 377.113 103.508 360.744C122.916 341.586 119.572 319.113 139.727 301.04C159.293 283.497 182.098 294.311 182.098 294.311C182.098 294.311 170.798 291.333 148.075 313.724C128.015 333.491 129.138 362.335 108.116 373.756Z" stroke="#575753" stroke-width="1.50164" stroke-linejoin="round"/>
<path d="M145.325 354.516C136.266 364.656 119.9 372.271 119.9 372.271C119.9 372.271 131.697 360.685 136.573 349.253C142.471 335.427 147.001 323.768 154.384 315.132C160.484 307.996 175.723 304.066 175.723 304.066C175.723 304.066 168.899 312.201 164.138 321.512C157.384 334.721 155.21 343.452 145.325 354.516Z" stroke="#575753" stroke-width="1.50164" stroke-linejoin="round"/>
<path d="M505.749 43.4411C493.65 50.0136 471.744 52.7536 471.744 52.7536C471.744 52.7536 484.557 46.7989 501.141 30.4292C520.549 11.2717 517.204 -11.2018 537.36 -29.2741C556.926 -46.8173 579.731 -36.0038 579.731 -36.0038C579.731 -36.0038 568.431 -38.9819 545.708 -16.5901C525.648 3.17677 526.771 32.0209 505.749 43.4411Z" stroke="#575753" stroke-width="1.50164" stroke-linejoin="round"/>
<path d="M484.706 37.9616C479.753 40.9328 470.634 42.5117 470.634 42.5117C470.634 42.5117 477.169 39.6776 481.14 35.1088C487.831 27.4105 486.156 18.8487 494.074 12.4189C499.045 8.38182 508.821 5.24705 508.821 5.24705C508.821 5.24705 503.194 10.0624 500.377 13.8258C493.496 23.0214 494.343 32.1803 484.706 37.9616Z" stroke="#575753" stroke-width="1.50164" stroke-linejoin="round"/>
<path d="M461.968 417.498C449.869 424.071 427.963 426.811 427.963 426.811C427.963 426.811 440.776 420.856 457.36 404.486C476.768 385.329 473.423 362.855 493.579 344.783C513.144 327.24 535.95 338.053 535.95 338.053C535.95 338.053 524.65 335.075 501.926 357.467C481.867 377.234 482.99 406.078 461.968 417.498Z" stroke="#575753" stroke-width="1.50164" stroke-linejoin="round"/>
<path d="M499.177 398.258C490.117 408.398 473.751 416.013 473.751 416.013C473.751 416.013 485.548 404.427 490.425 392.996C496.323 379.17 500.853 367.511 508.235 358.874C514.335 351.738 529.575 347.808 529.575 347.808C529.575 347.808 522.751 355.943 517.99 365.254C511.236 378.463 509.061 387.195 499.177 398.258Z" stroke="#575753" stroke-width="1.50164" stroke-linejoin="round"/>
<path d="M520.179 266.478C508.08 273.05 486.174 275.79 486.174 275.79C486.174 275.79 498.987 269.836 515.571 253.466C534.979 234.308 531.634 211.835 551.79 193.763C571.355 176.219 594.161 187.033 594.161 187.033C594.161 187.033 582.861 184.055 560.137 206.447C540.078 226.213 541.201 255.058 520.179 266.478Z" stroke="#575753" stroke-width="1.50164" stroke-linejoin="round"/>
<path d="M499.128 260.998C494.175 263.969 485.056 265.548 485.056 265.548C485.056 265.548 491.591 262.714 495.562 258.145C502.252 250.447 500.578 241.885 508.496 235.455C513.467 231.418 523.242 228.284 523.242 228.284C523.242 228.284 517.616 233.099 514.799 236.862C507.918 246.058 508.765 255.217 499.128 260.998Z" stroke="#575753" stroke-width="1.50164" stroke-linejoin="round"/>
<path d="M291.132 391.173C279.033 397.746 257.127 400.486 257.127 400.486C257.127 400.486 269.94 394.531 286.524 378.162C305.932 359.004 302.587 336.531 322.743 318.458C342.308 300.915 365.114 311.729 365.114 311.729C365.114 311.729 353.814 308.751 331.09 331.142C311.031 350.909 312.154 379.753 291.132 391.173Z" stroke="#575753" stroke-width="1.50164" stroke-linejoin="round"/>
<path d="M328.341 371.933C319.281 382.073 302.915 389.689 302.915 389.689C302.915 389.689 314.712 378.102 319.589 366.671C325.487 352.845 330.017 341.186 337.399 332.549C343.499 325.414 358.739 321.483 358.739 321.483C358.739 321.483 351.915 329.618 347.154 338.93C340.4 352.139 338.225 360.87 328.341 371.933Z" stroke="#575753" stroke-width="1.50164" stroke-linejoin="round"/>
<path d="M229.561 311.253C217.463 317.826 195.557 320.566 195.557 320.566C195.557 320.566 208.37 314.611 224.954 298.241C244.362 279.084 241.017 256.61 261.173 238.538C280.738 220.995 303.544 231.808 303.544 231.808C303.544 231.808 292.244 228.83 269.52 251.222C249.461 270.989 250.583 299.833 229.561 311.253Z" stroke="#575753" stroke-width="1.50164" stroke-linejoin="round"/>
<path d="M208.511 305.774C203.558 308.745 194.439 310.324 194.439 310.324C194.439 310.324 200.974 307.49 204.945 302.921C211.635 295.222 209.961 286.661 217.878 280.231C222.85 276.194 232.625 273.059 232.625 273.059C232.625 273.059 226.999 277.874 224.182 281.638C217.301 290.833 218.148 299.992 208.511 305.774Z" stroke="#575753" stroke-width="1.50164" stroke-linejoin="round"/>
<path d="M266.771 292.013C257.711 302.153 241.345 309.768 241.345 309.768C241.345 309.768 253.142 298.182 258.019 286.75C263.917 272.925 268.446 261.265 275.829 252.629C281.929 245.493 297.168 241.563 297.168 241.563C297.168 241.563 290.345 249.698 285.584 259.009C278.83 272.218 276.655 280.949 266.771 292.013Z" stroke="#575753" stroke-width="1.50164" stroke-linejoin="round"/>
<path d="M455.6 183.204C443.502 189.776 421.596 192.516 421.596 192.516C421.596 192.516 434.409 186.562 450.993 170.192C470.401 151.034 467.056 128.561 487.212 110.489C506.777 92.9454 529.583 103.759 529.583 103.759C529.583 103.759 518.283 100.781 495.559 123.173C475.5 142.939 476.622 171.784 455.6 183.204Z" stroke="#575753" stroke-width="1.50164" stroke-linejoin="round"/>
<path d="M434.558 177.724C429.605 180.695 420.486 182.274 420.486 182.274C420.486 182.274 427.021 179.44 430.991 174.871C437.682 167.173 436.008 158.611 443.925 152.182C448.896 148.145 458.672 145.01 458.672 145.01C458.672 145.01 453.045 149.825 450.229 153.589C443.348 162.784 444.195 171.943 434.558 177.724Z" stroke="#575753" stroke-width="1.50164" stroke-linejoin="round"/>
<path d="M492.81 163.963C483.75 174.104 467.384 181.719 467.384 181.719C467.384 181.719 479.181 170.133 484.058 158.701C489.956 144.875 494.485 133.216 501.868 124.58C507.968 117.444 523.208 113.513 523.208 113.513C523.208 113.513 516.384 121.649 511.623 130.96C504.869 144.169 502.694 152.9 492.81 163.963Z" stroke="#575753" stroke-width="1.50164" stroke-linejoin="round"/>
<path d="M343.64 247.286C331.541 253.859 309.635 256.599 309.635 256.599C309.635 256.599 322.448 250.644 339.032 234.274C358.44 215.117 355.095 192.643 375.251 174.571C394.816 157.028 417.622 167.841 417.622 167.841C417.622 167.841 406.322 164.863 383.598 187.255C363.539 207.022 364.661 235.866 343.64 247.286Z" stroke="#575753" stroke-width="1.50164" stroke-linejoin="round"/>
<path d="M322.589 241.806C317.636 244.778 308.517 246.356 308.517 246.356C308.517 246.356 315.052 243.522 319.023 238.953C325.713 231.255 324.039 222.693 331.957 216.264C336.928 212.227 346.703 209.092 346.703 209.092C346.703 209.092 341.077 213.907 338.26 217.671C331.379 226.866 332.226 236.025 322.589 241.806Z" stroke="#575753" stroke-width="1.50164" stroke-linejoin="round"/>
<path d="M380.841 228.046C371.781 238.186 355.415 245.801 355.415 245.801C355.415 245.801 367.212 234.215 372.089 222.784C377.987 208.958 382.517 197.299 389.899 188.662C395.999 181.526 411.239 177.596 411.239 177.596C411.239 177.596 404.415 185.731 399.654 195.042C392.9 208.251 390.725 216.983 380.841 228.046Z" stroke="#575753" stroke-width="1.50164" stroke-linejoin="round"/>
<path d="M490.729 319.105C498.578 307.793 503.682 286.314 503.682 286.314C503.682 286.314 496.37 298.404 478.295 313.111C457.142 330.322 435.165 324.555 415.009 342.627C395.444 360.17 403.715 384.016 403.715 384.016C403.715 384.016 401.983 372.459 426.711 352.304C448.541 334.511 477.092 338.762 490.729 319.105Z" stroke="#575753" stroke-width="1.50164" stroke-linejoin="round"/>
<path d="M487.566 297.587C491.058 292.986 493.619 284.092 493.619 284.092C493.619 284.092 490.091 290.28 485.118 293.731C476.738 299.546 468.409 296.951 461.157 304.123C456.603 308.626 452.425 318.003 452.425 318.003C452.425 318.003 457.823 312.933 461.87 310.542C471.759 304.701 480.772 306.538 487.566 297.587Z" stroke="#575753" stroke-width="1.50164" stroke-linejoin="round"/>
<path d="M467.557 353.998C478.621 346.094 487.97 330.652 487.97 330.652C487.97 330.652 475.17 341.121 463.277 344.726C448.892 349.087 436.809 352.322 427.422 358.723C419.665 364.011 414.102 378.733 414.102 378.733C414.102 378.733 422.931 372.834 432.704 369.113C446.569 363.834 455.485 362.622 467.557 353.998Z" stroke="#575753" stroke-width="1.50164" stroke-linejoin="round"/>
</g>
</mask>
<g mask="url(#mask0_496_12412)">
<rect x="1164.91" y="342.214" width="1172.78" height="852.933" transform="rotate(138.119 1164.91 342.214)" fill="url(#paint1_linear_496_12412)"/>
</g>
<defs>
<linearGradient id="paint0_linear_496_12412" x1="409.366" y1="-7.54687e-07" x2="408.035" y2="557.111" gradientUnits="userSpaceOnUse">
<stop stop-color="#FEF7D7" stop-opacity="0.74"/>
<stop offset="1" stop-color="#FEF7D7" stop-opacity="0"/>
</linearGradient>
<linearGradient id="paint1_linear_496_12412" x1="1731.78" y1="342.214" x2="1753.79" y2="1069.29" gradientUnits="userSpaceOnUse">
<stop offset="0.413035" stop-color="#FEF7D7" stop-opacity="0.8"/>
<stop offset="1" stop-color="#FDF6AB" stop-opacity="0"/>
</linearGradient>
<clipPath id="clip0_496_12412">
<rect width="846.927" height="557.11" fill="white" transform="translate(1002.76 332.313) rotate(138.119)"/>
</clipPath>
</defs>
</svg>
