<svg width="28" height="28" viewBox="0 0 28 28" fill="none" xmlns="http://www.w3.org/2000/svg"><path d="M14.0863 0.670654C6.7294 0.670654 0.734375 6.66568 0.734375 14.0226C0.734375 21.3795 6.7294 27.3746 14.0863 27.3746C21.4433 27.3746 27.4383 21.3795 27.4383 14.0226C27.4383 6.66568 21.4433 0.670654 14.0863 0.670654ZM20.4686 10.9517L12.898 18.5222C12.7111 18.7091 12.4574 18.816 12.1904 18.816C11.9233 18.816 11.6696 18.7091 11.4827 18.5222L7.70409 14.7436C7.31689 14.3564 7.31689 13.7155 7.70409 13.3283C8.0913 12.9411 8.7322 12.9411 9.1194 13.3283L12.1904 16.3993L19.0533 9.53635C19.4405 9.14915 20.0814 9.14915 20.4686 9.53635C20.8558 9.92356 20.8558 10.5511 20.4686 10.9517Z" fill="#FCD535"/></svg>