<svg width="15" height="16" viewBox="0 0 15 16" fill="none" xmlns="http://www.w3.org/2000/svg">
<path d="M7.23679 0.981255C7.35059 0.773191 7.64941 0.773191 7.76321 0.981254L10.1095 5.27126C10.137 5.32159 10.1784 5.36298 10.2287 5.39051L14.5187 7.73679C14.7268 7.85059 14.7268 8.14941 14.5187 8.26321L10.2287 10.6095C10.1784 10.637 10.137 10.6784 10.1095 10.7287L7.76321 15.0187C7.64941 15.2268 7.35059 15.2268 7.23679 15.0187L4.89051 10.7287C4.86298 10.6784 4.8216 10.637 4.77126 10.6095L0.481255 8.26321C0.273191 8.14941 0.273191 7.85059 0.481254 7.73679L4.77126 5.39051C4.82159 5.36298 4.86298 5.3216 4.89051 5.27126L7.23679 0.981255Z" fill="#FCD535"/>
</svg>
